<svg xmlns="http://www.w3.org/2000/svg" viewBox="0 0 130.19 101.52"><defs><style>.cls-1{fill:#fff;}</style></defs><title>Recurso 2</title><g id="Capa_2" data-name="Capa 2"><g id="Capa_1-2" data-name="Capa 1"><path class="cls-1" d="M0,65.72C0,56.86.49,48.79,2.42,40.87,4.51,32.27,8,24.38,14.29,17.94A43.47,43.47,0,0,1,33.87,6.62,75.38,75.38,0,0,1,57.36,4,30.65,30.65,0,0,1,69.84,6.7,20.12,20.12,0,0,1,80.2,18c2.2,5.61,2.6,11.5,2.36,17.46-.13,3.27-.18,6.53-.52,9.79a48,48,0,0,1-2.67,12.42c-2,5.2-5.78,8.72-10.61,11.36-5.4,3-11.26,4.42-17.19,5.7a79.32,79.32,0,0,0-12.36,3.47,19.87,19.87,0,0,0-10.88,9.68,34.39,34.39,0,0,1-7.16,9.69c-3.26,3-7.05,4.52-11.55,3.81a8.42,8.42,0,0,1-6.25-4.77A27.72,27.72,0,0,1,.68,86.31,110.9,110.9,0,0,1,.22,74.78C.19,71.51-.08,68.25,0,65.72Z"/><path class="cls-1" d="M106.85,0C113,.3,119,.91,124.76,3.18A12.46,12.46,0,0,1,127.9,4.9c2.55,2,3,4.42,1.27,7.19-1.27,2.06-3.22,3.43-5,4.95a30.61,30.61,0,0,0-3.78,3.6,11.49,11.49,0,0,0-2.6,7.34,24.78,24.78,0,0,1-.75,5.49,11.84,11.84,0,0,1-6.64,7.92,71.85,71.85,0,0,0-9,5,20.93,20.93,0,0,0-6.07,6.15,6.46,6.46,0,0,1-7.65,2.79,6.56,6.56,0,0,1-3.78-7.62,80.68,80.68,0,0,0,1.43-22.09A35.78,35.78,0,0,0,83.14,15a11.24,11.24,0,0,1-.73-3.73,6.56,6.56,0,0,1,3.8-6.45A46.51,46.51,0,0,1,97.47,1.18,35.67,35.67,0,0,1,106.85,0Z"/></g></g></svg>