<svg xmlns="http://www.w3.org/2000/svg" viewBox="0 0 324.81 51.57"><defs><style>.cls-1{fill:#2a5c82;}</style></defs><title>3DLIVER Tipografia</title><g id="Capa_2" data-name="Capa 2"><g id="Capa_1-2" data-name="Capa 1"><path class="cls-1" d="M52.54,25.85V2.2c0-1.49,0-1.52,1.53-1.52,5.3,0,10.6-.05,15.91,0a30.63,30.63,0,0,1,11.51,2A19.28,19.28,0,0,1,92.76,14.4a32.11,32.11,0,0,1-.62,24.43c-3.08,7-8.87,10.59-16.26,11.8-4.44.73-8.92.37-13.38.43-2.86,0-5.73,0-8.6,0-1,0-1.38-.33-1.38-1.38C52.56,41.76,52.54,33.8,52.54,25.85Zm10.56,0v7.3c0,2.43,0,4.86,0,7.29,0,.9.29,1.22,1.19,1.2,2.32,0,4.65,0,7,0,5.51-.16,9.51-2.85,11.14-7.82a24.59,24.59,0,0,0,0-15.94c-1.54-4.52-4.85-7-9.59-7.57-2.78-.35-5.58-.08-8.37-.2-1-.05-1.3.31-1.29,1.3C63.12,16.2,63.1,21,63.1,25.86Z"/><path class="cls-1" d="M286.14,25.86q0-11.83,0-23.65c0-1.51,0-1.53,1.51-1.53,5.37,0,10.75-.05,16.12,0A22.26,22.26,0,0,1,312,2.06c5.19,2.1,7.75,6.09,8.44,11.47a13.61,13.61,0,0,1-1.67,9.24,12.36,12.36,0,0,1-7.65,5.38c-1,.26-.93.54-.44,1.27q6.84,10.17,13.63,20.38c.21.31.65.63.45,1s-.72.22-1.09.22c-3.31,0-6.61,0-9.91,0a1.77,1.77,0,0,1-1.74-1q-5.83-10-11.74-19.9a2.67,2.67,0,0,0-3.15-1.11c-.55.22-.42.71-.42,1.12q0,4.14,0,8.28c0,3.78,0,7.56,0,11.34,0,.94-.31,1.28-1.26,1.27-2.61-.05-5.23,0-7.84,0-1.46,0-1.47,0-1.47-1.45Q286.14,37.74,286.14,25.86ZM296.7,15.4c0,1.59,0,3.19,0,4.79,0,.82.22,1.19,1.1,1.16,1.89-.05,3.78,0,5.67,0a9.45,9.45,0,0,0,4.21-.94c2.2-1.16,3.05-3.18,2.66-6.14a5.17,5.17,0,0,0-4.23-4.29c-2.87-.63-5.79-.26-8.68-.32-.67,0-.72.48-.72,1C296.71,12.2,296.7,13.8,296.7,15.4Z"/><path class="cls-1" d="M239.52,26q0-11.88,0-23.75c0-1.51,0-1.53,1.51-1.53q13.08,0,26.14,0c1.55,0,1.61.06,1.62,1.57,0,2.18,0,4.36,0,6.54,0,1-.35,1.32-1.33,1.31-5.27,0-10.53,0-15.8,0-1.42,0-1.43,0-1.44,1.48v8.28c0,1.48,0,1.48,1.54,1.48h13.4c1.45,0,1.45,0,1.46,1.46,0,2.14-.05,4.28,0,6.42,0,1.08-.38,1.37-1.4,1.36-4.54,0-9.07,0-13.61,0-1.11,0-1.45.34-1.43,1.43.07,2.73,0,5.45,0,8.18,0,1.47,0,1.48,1.55,1.48h15.58c1.37,0,1.42,0,1.42,1.4,0,2.25,0,4.5,0,6.75,0,.92-.26,1.3-1.24,1.3q-13.4,0-26.79,0c-1.07,0-1.27-.44-1.27-1.37C239.53,41.8,239.52,33.88,239.52,26Z"/><path class="cls-1" d="M201.17,38.11Q202.6,34,204,30c3.23-9.34,6.48-18.67,9.67-28A1.67,1.67,0,0,1,215.56.66c2.8,0,5.6,0,8.39,0,1.29,0,1.4.15,1,1.3L209.29,44.29c-.72,1.94-1.45,3.88-2.13,5.83a1.23,1.23,0,0,1-1.36,1c-3.2,0-6.39,0-9.59,0-.82,0-1.13-.37-1.38-1.06q-6.18-16.89-12.39-33.76-2.62-7.11-5.23-14.21c-.48-1.29-.42-1.37.92-1.37,2.83,0,5.67,0,8.5,0A1.58,1.58,0,0,1,188.41,2q6.06,17.67,12.2,35.33c.09.26.2.53.31.79Z"/><path class="cls-1" d="M17.87,51.52a20.24,20.24,0,0,1-9-1.29C4.35,48.35,1.83,44.81.72,40.16A24.94,24.94,0,0,1,0,33.89c0-.69.29-1,1-1q4.19-.18,8.37-.4c.76,0,1,.29,1,1A19.2,19.2,0,0,0,11,38.7a5.61,5.61,0,0,0,5,4,13.07,13.07,0,0,0,4.75-.24c3.45-.88,5.26-3.72,5.08-7.29-.13-2.66-1.11-4.89-3.69-6.08a9.6,9.6,0,0,0-4.27-.68c-1,0-1.35-.35-1.32-1.33.05-1.74.05-3.49,0-5.23,0-1,.33-1.48,1.39-1.4a5.46,5.46,0,0,0,3.35-.7,6.29,6.29,0,0,0,2.8-6.61c-.43-2.27-2-3.64-4.71-4.2a8.52,8.52,0,0,0-3.56.1,4.61,4.61,0,0,0-3.57,3.18A12.2,12.2,0,0,0,11.66,16c0,.62-.15.93-.86.9-2.69-.14-5.37-.21-8-.34-.61,0-1.43,0-1.38-1C1.64,10.16,3.23,5.41,8.14,2.41A18,18,0,0,1,18.72,0a17.16,17.16,0,0,1,11,4.35,12,12,0,0,1-1.15,18.8c-.22.15-.62.21-.55.58s.39.29.62.39c6,2.43,8.05,8,7.53,13.61-.85,9.14-9,13.72-15.91,13.75Z"/><path class="cls-1" d="M111.16,25.83V2.19c0-1.48,0-1.51,1.53-1.51,2.54,0,5.09,0,7.63,0,1.1,0,1.42.35,1.42,1.44,0,12.6,0,25.21,0,37.81,0,1.72,0,1.73,1.72,1.73,4.21,0,8.42,0,12.63,0,1.05,0,1.39.35,1.36,1.39-.06,2.28-.05,4.57,0,6.86,0,.89-.3,1.21-1.2,1.21-7.95,0-15.9,0-23.85,0-1.1,0-1.23-.5-1.23-1.4C111.17,41.74,111.16,33.78,111.16,25.83Z"/><path class="cls-1" d="M162.66,26V49.5c0,1.56,0,1.57-1.59,1.57h-7.52c-1.52,0-1.57,0-1.58-1.61V2.26c0-1.52.07-1.58,1.61-1.58q3.64,0,7.3,0c1.78,0,1.78,0,1.78,1.73Z"/></g></g></svg>